<svg xmlns="http://www.w3.org/2000/svg" viewBox="0 0 236.61 253.8"><defs><style>.cls-1{fill:none;stroke:#264563;stroke-miterlimit:10;stroke-width:2px;}.cls-2{font-size:34.75px;fill:#254563;font-family:TrebuchetMS, Trebuchet MS;letter-spacing:0.1em;}.cls-3{letter-spacing:0.2em;}.cls-4{letter-spacing:0.09em;}.cls-5{letter-spacing:0.15em;}.cls-6{fill:#264563;}</style></defs><title>Recurso 5</title><g id="Capa_2" data-name="Capa 2"><g id="LIFESTYLE"><path class="cls-1" d="M237.09,87.87,118.76,148m59.17-106,59.16,45.79M118.76,148,141,131.68m37-89.6-18.66,61.55M141,131.68l18.3-28.05m18.66-61.55,57.69-24.93m0,0,1.47,70.72M177.93,42.08,231.34.79m4.28,16.36L231.34.79M141,131.68,231.34.79m4.28,16.36L206.78,129.34m-9.33,18.31,39.64-59.78M207.51,145.7l9.76-28m-19.82,30,10.06-2m-10.06,2,9.33,26.87m-9.33-26.87-7,18.3m16.34,8.57-16.95-8.88m-36,4.6,43.63-22.59m-21.82,26.87,21.82-26.87m-43.27,22.23L176,174.16m30.78-44.82-88,18.7M141,131.68l65.81-2.34M125.9,75.83l52-33.77M161.27,84.69,146.76,74M125.9,75.83l20.84-1.5m31.2-32.27-31.2,32.27m31.2-32.27-16.68,43M119.55,147.4l-58.66-38M3.24,107.86l57.65,1.56m2.34,40.51-60-42.07m60,42.07,56.32-2.53m-56.32,2.53-2.34-40.51M3.24,107.86,119.55,147.4M2.07,191.61,119.55,147.4m-40,38.76L51.93,155M2,191l77.52-5.45m40-38.12-40,38.76M51.93,155,2.07,191.61M51.93,155l65.74-6.88" transform="translate(-1.48)"/><text class="cls-2" transform="translate(18.95 220.98)">AT<tspan class="cls-3" x="47.89" y="0">ARR</tspan><tspan class="cls-4" x="129.8" y="0">AY</tspan><tspan class="cls-5" x="176.69" y="0">A</tspan></text><path class="cls-6" d="M1.53,241H7.76v.76H2.42v5h4.9v.76H2.42v6.1H1.53Z" transform="translate(-1.48)"/><path class="cls-6" d="M24.15,241V253.6h-.88V241Z" transform="translate(-1.48)"/><path class="cls-6" d="M39.92,252.21a5,5,0,0,0,2.76.83c1.88,0,3-1.07,3-2.63,0-1.41-.74-2.24-2.56-2.95-2-.72-3.25-1.76-3.25-3.48s1.53-3.2,3.67-3.2a4.79,4.79,0,0,1,2.52.6l-.35.75a4.09,4.09,0,0,0-2.23-.6c-2,0-2.73,1.3-2.73,2.3,0,1.4.81,2.11,2.62,2.82,2.08.84,3.19,1.79,3.19,3.68s-1.31,3.47-4,3.47a5.66,5.66,0,0,1-3-.85Z" transform="translate(-1.48)"/><path class="cls-6" d="M63,241v5.55h7V241h.89V253.6H70v-6.31H63v6.31H62.1V241Z" transform="translate(-1.48)"/><path class="cls-6" d="M114.82,247.62c-.12-1.89-.27-4.21-.26-5.59h0c-.45,1.37-1,2.83-1.7,4.71l-2.65,6.86h-.62l-2.48-6.71c-.72-2-1.26-3.48-1.64-4.86h0c0,1.48-.13,3.67-.28,5.77l-.39,5.8h-.88l.92-12.62h1l2.72,7.27c.59,1.61,1,2.88,1.39,4.1h.05c.32-1.17.77-2.39,1.41-4.08l2.82-7.29h1.06l.85,12.62h-.88Z" transform="translate(-1.48)"/><path class="cls-6" d="M133.09,249.19l-1.56,4.41h-.91L135.18,241H136l4.55,12.62h-.92l-1.59-4.41Zm4.72-.75-1.54-4.22c-.3-.87-.47-1.51-.66-2.22h0a22.08,22.08,0,0,1-.66,2.18l-1.54,4.26Z" transform="translate(-1.48)"/><path class="cls-6" d="M155.64,241.15a13.94,13.94,0,0,1,2.72-.27,4.53,4.53,0,0,1,3.4,1.07,3.16,3.16,0,0,1,.88,2.24,3.34,3.34,0,0,1-2.47,3.29v0a3.23,3.23,0,0,1,2,2.68,16.5,16.5,0,0,0,.94,3.4h-.93a17.3,17.3,0,0,1-.81-3.07c-.39-1.82-1.16-2.64-2.82-2.71h-2v5.78h-.88Zm.88,5.94h2c1.95,0,3.21-1.09,3.21-2.75,0-1.94-1.42-2.72-3.4-2.72a8.27,8.27,0,0,0-1.82.17Z" transform="translate(-1.48)"/><path class="cls-6" d="M178.18,241h.89v6.39h.06c.37-.49.75-.92,1.08-1.31l4.47-5.08h1.1l-4.8,5.36,5.25,7.26h-1.08L180.37,247l-1.3,1.42v5.23h-.89Z" transform="translate(-1.48)"/><path class="cls-6" d="M206.53,247.33h-5v5.52h5.64v.75H200.6V241h6.23v.76h-5.34v4.83h5Z" transform="translate(-1.48)"/><path class="cls-6" d="M225.23,241.73h-4.11V241h9.12v.75h-4.12V253.6h-.89Z" transform="translate(-1.48)"/></g></g></svg>